<svg width="167" height="23" xmlns="http://www.w3.org/2000/svg" fill="none">
 <defs>
  <linearGradient y2="0.4997" x2="1.0003" y1="0.4997" x1="0.00035" id="paint0_linear">
   <stop stop-color="#4F4C5F"/>
   <stop stop-color="#77718A" offset="1"/>
  </linearGradient>
  <linearGradient y2="0.4997" x2="0.99983" y1="0.4997" x1="-0.00015" id="paint1_linear">
   <stop stop-color="#77718A"/>
   <stop stop-color="#4F4C5F" offset="1"/>
  </linearGradient>
  <linearGradient y2="-0.00006" x2="0.50007" y1="0.99997" x1="0.50007" id="paint2_linear">
   <stop stop-color="#F0A83E"/>
   <stop stop-color="#FFF5E3" offset="1"/>
  </linearGradient>
  <linearGradient y2="0.49964" x2="1.00015" y1="0.49964" x1="0.00016" id="paint3_linear">
   <stop stop-color="#EFC4AB"/>
   <stop stop-color="#3C2313" offset="1"/>
  </linearGradient>
  <linearGradient y2="238.55932" x2="277.66145" y1="238.55932" x1="162.2806" id="paint4_linear">
   <stop stop-color="#4F4C5F"/>
   <stop stop-color="#77718A" offset="1"/>
  </linearGradient>
  <linearGradient y2="0.49982" x2="0.99998" y1="0.49982" x1="0.00016" id="paint5_linear">
   <stop stop-color="#FD869C"/>
   <stop stop-color="#FDB0BF" offset="1"/>
  </linearGradient>
  <linearGradient y2="238.55932" x2="111.9501" y1="238.55932" x1="-3.43" id="paint6_linear">
   <stop stop-color="#77718A"/>
   <stop stop-color="#4F4C5F" offset="1"/>
  </linearGradient>
  <linearGradient y2="0.49978" x2="1.00002" y1="0.49978" x1="-0.00006" id="paint7_linear">
   <stop stop-color="#FDB0BF"/>
   <stop stop-color="#FD869C" offset="1"/>
  </linearGradient>
  <linearGradient y2="-0.0076" x2="0.50003" y1="0.99996" x1="0.50003" id="paint8_linear">
   <stop stop-color="#FDB58A"/>
   <stop stop-color="#3C2313" offset="1"/>
  </linearGradient>
  <linearGradient y2="-0.00007" x2="0.49992" y1="1.00003" x1="0.49992" id="paint9_linear">
   <stop stop-color="#FFF5E3"/>
   <stop stop-color="#F0A83E" offset="1"/>
  </linearGradient>
 </defs>
 <g>
  <title>Layer 1</title>
  <path id="svg_1" fill="url(#paint0_linear)" d="m161.675,4.40702c0.892,-0.57173 2.062,-0.53111 2.94,0.05874c0.808,0.53022 1.403,1.30837 1.69,2.20665c0.108,0.34139 0.101,0.7068 -0.019,1.0444c-0.121,0.33761 -0.348,0.63027 -0.652,0.83649c-0.303,0.20621 -0.666,0.31551 -1.037,0.31239c-0.372,-0.00312 -0.733,-0.11849 -1.032,-0.32976l-2.934,-2.07156c0,-1.07199 0.479,-1.69512 1.044,-2.05588l0,-0.00147z"/>
  <path id="svg_2" fill="url(#paint1_linear)" d="m152.705,4.40702c-0.892,-0.57173 -2.062,-0.53111 -2.939,0.05874c-0.808,0.53022 -1.403,1.30837 -1.689,2.20665c-0.109,0.34139 -0.102,0.7068 0.018,1.0444c0.121,0.33761 0.348,0.63027 0.652,0.83649c0.303,0.20621 0.666,0.31551 1.038,0.31239c0.371,-0.00312 0.732,-0.11849 1.032,-0.32976l2.933,-2.07156c0,-1.07199 -0.479,-1.69512 -1.044,-2.05588l-0.001,-0.00147z"/>
  <path id="svg_3" fill="#5C586F" d="m152.161,6.24308c-0.165,-0.15816 -0.388,-0.24699 -0.621,-0.24699c-0.234,0 -0.457,0.08883 -0.622,0.24699c-0.756,0.72055 -1.373,1.56496 -1.82,2.4935c0.281,0.11082 0.586,0.15048 0.887,0.11516c0.301,-0.03532 0.588,-0.14442 0.833,-0.31684l1.478,-1.26437c0.099,-0.16125 0.14,-0.34982 0.116,-0.53589c-0.024,-0.18608 -0.113,-0.35905 -0.251,-0.49156z"/>
  <path id="svg_4" fill="url(#paint2_linear)" d="m164.501,13.7075c-0.432,3.0349 -2.462,4.6688 -7.311,4.6688c-5.544,0 -7.401,-2.1342 -7.401,-6.0599c0,-1.117 0.274,-2.2182 0.8,-3.2144c0.526,-0.9962 1.289,-1.8594 2.227,-2.51969c0.938,-0.66029 2.025,-1.09911 3.173,-1.28092c1.147,-0.18181 2.323,-0.10149 3.432,0.23445l5.08,8.17166z"/>
  <path id="svg_5" fill="url(#paint3_linear)" d="m164.592,12.3182c0.002,0.4652 -0.028,0.93 -0.091,1.3912c-0.707,0.188 -1.449,0.2166 -2.169,0.0837c-0.72,-0.1329 -1.399,-0.4238 -1.983,-0.85c-0.583,-0.4263 -1.057,-0.9762 -1.383,-1.607c-0.326,-0.6309 -0.495,-1.3255 -0.496,-2.02974c0,-1.95799 0.208,-3.11124 0.949,-3.76913c1.501,0.45552 2.811,1.35846 3.741,2.57779c0.931,1.21933 1.432,2.69158 1.432,4.20318z"/>
  <path id="svg_6" fill="#FFAECF" d="m152.191,12.2718c0.469,0 0.849,-0.2937 0.849,-0.6559c0,-0.3623 -0.38,-0.6559 -0.849,-0.6559c-0.47,0 -0.85,0.2936 -0.85,0.6559c0,0.3622 0.38,0.6559 0.85,0.6559z"/>
  <path id="svg_7" fill="#FFAECF" d="m162.189,12.2718c0.47,0 0.85,-0.2937 0.85,-0.6559c0,-0.3623 -0.38,-0.6559 -0.85,-0.6559c-0.469,0 -0.849,0.2936 -0.849,0.6559c0,0.3622 0.38,0.6559 0.849,0.6559z"/>
  <path id="svg_8" fill="white" d="m155.311,10.2575c0.149,-0.88219 -0.475,-1.71345 -1.393,-1.85665c-0.919,-0.1432 -1.784,0.45588 -1.933,1.33808c-0.15,0.88217 0.474,1.71347 1.393,1.85667c0.918,0.1432 1.784,-0.4559 1.933,-1.3381z"/>
  <path id="svg_9" fill="white" d="m160.733,11.6158c0.93,0 1.685,-0.7245 1.685,-1.61825c0,-0.89375 -0.755,-1.61828 -1.685,-1.61828c-0.931,0 -1.685,0.72453 -1.685,1.61828c0,0.89375 0.754,1.61825 1.685,1.61825z"/>
  <path id="svg_10" fill="#383842" d="m154.66,10.1134c0.089,-0.52721 -0.284,-1.02371 -0.833,-1.10892c-0.549,-0.08521 -1.066,0.27313 -1.155,0.80038c-0.089,0.52724 0.284,1.02374 0.833,1.10894c0.549,0.0852 1.066,-0.2731 1.155,-0.8004z"/>
  <path id="svg_11" fill="#383842" d="m160.733,10.9618c0.554,0 1.004,-0.4317 1.004,-0.96429c0,-0.53257 -0.45,-0.96431 -1.004,-0.96431c-0.555,0 -1.004,0.43174 -1.004,0.96431c0,0.53259 0.449,0.96429 1.004,0.96429z"/>
  <path id="svg_12" fill="#383842" d="m157.749,12.1078c-0.201,-0.0013 -0.397,-0.0618 -0.561,-0.1733c-0.164,0.1115 -0.359,0.172 -0.56,0.1733c-0.142,-0.003 -0.281,-0.034 -0.409,-0.0912c-0.129,-0.0572 -0.244,-0.1394 -0.337,-0.2412c-0.024,-0.024 -0.042,-0.0522 -0.054,-0.0829c-0.012,-0.0307 -0.017,-0.0634 -0.016,-0.0962c0.001,-0.0328 0.009,-0.065 0.024,-0.0948c0.014,-0.0298 0.034,-0.0567 0.059,-0.079c0.025,-0.0224 0.054,-0.0397 0.086,-0.0512c0.032,-0.0114 0.066,-0.0167 0.1,-0.0155c0.035,0.0011 0.068,0.0088 0.099,0.0224c0.031,0.0136 0.059,0.033 0.082,0.057c0.044,0.054 0.1,0.0977 0.164,0.1277c0.064,0.0301 0.134,0.0457 0.205,0.0457c0.072,0 0.142,-0.0156 0.206,-0.0457c0.064,-0.03 0.12,-0.0737 0.163,-0.1277c0.025,-0.025 0.054,-0.045 0.087,-0.0587c0.033,-0.0136 0.068,-0.0207 0.104,-0.0207c0.035,0 0.07,0.0071 0.103,0.0207c0.033,0.0137 0.062,0.0337 0.087,0.0587c0.043,0.054 0.099,0.0977 0.163,0.1277c0.064,0.0301 0.134,0.0457 0.206,0.0457c0.071,0 0.141,-0.0156 0.205,-0.0457c0.064,-0.03 0.12,-0.0737 0.164,-0.1277c0.023,-0.024 0.051,-0.0434 0.082,-0.057c0.031,-0.0136 0.064,-0.0213 0.099,-0.0224c0.034,-0.0012 0.068,0.0041 0.1,0.0155c0.032,0.0115 0.061,0.0288 0.086,0.0512c0.025,0.0223 0.045,0.0492 0.059,0.079c0.015,0.0298 0.023,0.062 0.024,0.0948c0.001,0.0328 -0.004,0.0655 -0.016,0.0962c-0.012,0.0307 -0.03,0.0589 -0.054,0.0829c-0.094,0.1023 -0.209,0.1846 -0.338,0.2418c-0.129,0.0572 -0.269,0.0881 -0.411,0.0906l-0.001,0z"/>
  <path id="svg_13" fill="#383842" d="m158.113,10.303c0,0.2859 -0.413,0.5169 -0.923,0.5169c-0.51,0 -0.923,-0.231 -0.923,-0.5169c0,-0.2858 0.413,-0.31911 0.923,-0.31911c0.51,0 0.923,0.03381 0.923,0.31911z"/>
  <path id="svg_14" fill="url(#paint4_linear)" d="m11.8335,10.2387c-0.5784,-0.0841 -1.1211,-0.32081 -1.5678,-0.68369c-0.44659,-0.36288 -0.77957,-0.83771 -0.9618,-1.3716c-0.18224,-0.5339 -0.20658,-1.1059 -0.07031,-1.6523c0.13626,-0.5464 0.42778,-1.04575 0.84211,-1.44242c1.2349,-1.18605 3.611,-1.54436 4.8459,-0.35831c0.0815,0.07823 0.1568,0.16217 0.2253,0.25111l-3.3134,5.25721z"/>
  <path id="svg_15" fill="url(#paint5_linear)" d="m14.5486,9.38398c-0.3506,0.33752 -0.7793,0.59082 -1.251,0.73932c-0.4718,0.1485 -0.9734,0.188 -1.464,0.1153c-0.1956,-0.55436 -0.2626,-1.14312 -0.1964,-1.72502c0.0661,-0.5819 0.2639,-1.14288 0.5795,-1.64367c0.3156,-0.50079 0.7413,-0.92928 1.2474,-1.25549c0.5061,-0.3262 1.0802,-0.54224 1.6824,-0.63297c0.9592,1.23402 0.555,3.29578 -0.5979,4.40253z"/>
  <path id="svg_16" fill="url(#paint6_linear)" d="m3.84854,10.2387c0.57841,-0.0841 1.12117,-0.32081 1.5678,-0.68369c0.44663,-0.36288 0.7796,-0.83771 0.96184,-1.3716c0.18224,-0.5339 0.20658,-1.1059 0.07031,-1.6523c-0.13626,-0.5464 -0.42778,-1.04575 -0.84209,-1.44242c-1.23494,-1.18605 -3.61103,-1.54436 -4.84546,-0.35831c-0.08176,0.0781 -0.15724,0.16205 -0.22578,0.25111l3.31338,5.25721z"/>
  <path id="svg_17" fill="url(#paint7_linear)" d="m1.13403,9.38398c0.35056,0.33751 0.77909,0.59081 1.25077,0.73932c0.47167,0.1485 0.97317,0.188 1.46375,0.1153c0.14725,-0.41593 0.22216,-0.85237 0.2217,-1.29174c-0.00024,-0.95715 -0.3566,-1.88271 -1.00481,-2.60973c-0.64821,-0.72703 -1.54559,-1.20766 -2.53027,-1.3552c-0.95615,1.23354 -0.55453,3.2953 0.59886,4.40205z"/>
  <path id="svg_18" fill="#FD748D" d="m2.37432,6.65754c-0.09666,-0.09241 -0.21282,-0.16385 -0.34065,-0.20952c-0.12783,-0.04566 -0.26436,-0.06449 -0.40041,-0.05521c-0.13604,0.00927 -0.26844,0.04644 -0.38827,0.10899c-0.11983,0.06256 -0.22431,0.14904 -0.30641,0.25364c-0.27735,0.35001 -0.52564,0.72039 -0.7426,1.10773c0.18262,0.57109 0.50387,1.09235 0.93729,1.52087c0.24866,0.23929 0.5372,0.43699 0.8537,0.58495l0.63556,-2.44259c0.04016,-0.15309 0.0384,-0.31355 -0.00509,-0.46579c-0.04349,-0.15224 -0.12724,-0.29109 -0.24312,-0.40307z"/>
  <path id="svg_19" fill="url(#paint8_linear)" d="m0.79561,12.651c-0.03931,-0.2863 -0.05889,-0.5747 -0.05861,-0.8635c0.01587,-1.7995 0.77133,-3.52013 2.10188,-4.78723c1.33054,-1.2671 3.12843,-1.97805 5.00219,-1.97805c1.87376,0 3.67163,0.71095 5.00223,1.97805c1.3305,1.2671 2.086,2.98773 2.1018,4.78723c0.0006,0.2889 -0.019,0.5776 -0.0586,0.864l-14.09089,-0.0005z"/>
  <path id="svg_20" fill="url(#paint9_linear)" d="m14.887,12.6514c-0.4505,3.2194 -3.4336,4.4715 -7.0457,4.4715c-3.61204,0 -6.59567,-1.2521 -7.04571,-4.472c1.83482,-1.6849 3.66964,-1.0911 5.6064,-4.6062c0.13824,-0.25106 0.34579,-0.46072 0.59988,-0.606c0.18991,-0.10904 0.40088,-0.17995 0.62014,-0.20844c0.21926,-0.0285 0.44226,-0.01398 0.65551,0.04266c0.21325,0.05665 0.41233,0.15425 0.58518,0.28691c0.17285,0.13265 0.31589,0.2976 0.42047,0.48487c1.93323,3.5151 3.77153,2.9213 5.60643,4.6067l-0.0026,0z"/>
  <path id="svg_21" fill="#FFAECF" d="m3.28227,11.8981c0.42786,0 0.7747,-0.2678 0.7747,-0.5982c0,-0.3303 -0.34684,-0.5981 -0.7747,-0.5981c-0.42786,0 -0.7747,0.2678 -0.7747,0.5981c0,0.3304 0.34684,0.5982 0.7747,0.5982z"/>
  <path id="svg_22" fill="#FFAECF" d="m12.3998,11.8981c0.4279,0 0.7747,-0.2678 0.7747,-0.5982c0,-0.3303 -0.3468,-0.5981 -0.7747,-0.5981c-0.4278,0 -0.7747,0.2678 -0.7747,0.5981c0,0.3304 0.3469,0.5982 0.7747,0.5982z"/>
  <path id="svg_23" fill="white" d="m4.61049,11.2999c0.8484,0 1.53616,-0.6605 1.53616,-1.47531c0,-0.81481 -0.68776,-1.47535 -1.53616,-1.47535c-0.84839,0 -1.53615,0.66054 -1.53615,1.47535c0,0.81481 0.68776,1.47531 1.53615,1.47531z"/>
  <path id="svg_24" fill="white" d="m11.0716,11.2999c0.8484,0 1.5362,-0.6605 1.5362,-1.47531c0,-0.81481 -0.6878,-1.47535 -1.5362,-1.47535c-0.8484,0 -1.53614,0.66054 -1.53614,1.47535c0,0.81481 0.68774,1.47531 1.53614,1.47531z"/>
  <path id="svg_25" fill="#383842" d="m4.61052,10.7042c0.50583,0 0.91588,-0.3938 0.91588,-0.87963c0,-0.4858 -0.41005,-0.87962 -0.91588,-0.87962c-0.50582,0 -0.91588,0.39382 -0.91588,0.87962c0,0.48583 0.41006,0.87963 0.91588,0.87963z"/>
  <path id="svg_26" fill="#383842" d="m11.0716,10.7042c0.5058,0 0.9159,-0.3938 0.9159,-0.87963c0,-0.4858 -0.4101,-0.87962 -0.9159,-0.87962c-0.5058,0 -0.9159,0.39382 -0.9159,0.87962c0,0.48583 0.4101,0.87963 0.9159,0.87963z"/>
  <path id="svg_27" fill="#383842" d="m8.35096,11.7703c-0.18196,-0.0014 -0.35937,-0.0547 -0.50968,-0.1532c-0.15017,0.0988 -0.32767,0.1521 -0.50967,0.1532c-0.13269,-0.0023 -0.26345,-0.031 -0.38399,-0.0843c-0.12054,-0.0534 -0.22824,-0.1301 -0.3163,-0.2255c-0.04467,-0.0488 -0.06777,-0.1124 -0.06441,-0.1773c0.00336,-0.0649 0.03293,-0.1259 0.08243,-0.1702c0.04949,-0.0443 0.11501,-0.0683 0.18264,-0.067c0.06763,0.0014 0.13204,0.028 0.17956,0.0743c0.03776,0.0469 0.08623,0.0849 0.14167,0.1111c0.05544,0.0261 0.11638,0.0397 0.17815,0.0397c0.06176,0 0.1227,-0.0136 0.17815,-0.0397c0.05544,-0.0262 0.1039,-0.0642 0.14167,-0.1111c0.02432,-0.0251 0.05375,-0.045 0.08645,-0.0587c0.03271,-0.0137 0.06799,-0.0207 0.10365,-0.0207c0.03567,0 0.07095,0.007 0.10365,0.0207c0.03271,0.0137 0.06214,0.0336 0.08646,0.0587c0.03777,0.0469 0.08623,0.0849 0.14167,0.1111c0.05544,0.0261 0.11638,0.0397 0.17815,0.0397c0.06176,0 0.12271,-0.0136 0.17815,-0.0397c0.05544,-0.0262 0.1039,-0.0642 0.14167,-0.1111c0.04751,-0.0463 0.11192,-0.0729 0.17955,-0.0743c0.06763,-0.0013 0.13315,0.0227 0.18265,0.067c0.04949,0.0443 0.07906,0.1053 0.08243,0.1702c0.00336,0.0649 -0.01975,0.1285 -0.06442,0.1773c-0.08796,0.0953 -0.19557,0.1721 -0.31603,0.2255c-0.12045,0.0533 -0.25113,0.082 -0.38375,0.0843l-0.0005,0z"/>
  <path id="svg_28" fill="#3C2313" d="m27.8242,12.1895l-5.625,0l0,5.8105l-2.9297,0l0,-14.21875l9.2578,0l0,2.37305l-6.3281,0l0,3.67187l5.625,0l0,2.36333zm7.9004,-2.1094c-0.3841,-0.0521 -0.7226,-0.0781 -1.0156,-0.0781c-1.0677,0 -1.7676,0.3613 -2.0996,1.0839l0,6.9141l-2.8223,0l0,-10.56641l2.666,0l0.0781,1.25977c0.5665,-0.97005 1.351,-1.45508 2.3536,-1.45508c0.3125,0 0.6054,0.04232 0.8789,0.12695l-0.0391,2.71487zm0.5762,2.539c0,-1.0481 0.2018,-1.9824 0.6054,-2.80269c0.4037,-0.82032 0.9831,-1.45508 1.7383,-1.9043c0.7617,-0.44922 1.6439,-0.67383 2.6465,-0.67383c1.4258,0 2.5879,0.4362 3.4863,1.3086c0.905,0.87239 1.4095,2.05732 1.5137,3.55472l0.0195,0.7226c0,1.6211 -0.4524,2.9232 -1.3574,3.9063c-0.9049,0.9765 -2.1191,1.4648 -3.6426,1.4648c-1.5234,0 -2.7408,-0.4883 -3.6523,-1.4648c-0.9049,-0.9766 -1.3574,-2.3047 -1.3574,-3.9844l0,-0.127zm2.8222,0.2051c0,1.0026 0.1888,1.7709 0.5665,2.3047c0.3776,0.5273 0.9179,0.791 1.621,0.791c0.6836,0 1.2175,-0.2604 1.6016,-0.7812c0.3841,-0.5274 0.5762,-1.3672 0.5762,-2.5196c0,-0.983 -0.1921,-1.7448 -0.5762,-2.2851c-0.3841,-0.54038 -0.9245,-0.81056 -1.6211,-0.81056c-0.6901,0 -1.2239,0.27018 -1.6015,0.81056c-0.3777,0.5338 -0.5665,1.3639 -0.5665,2.4902zm11.5235,-5.39061l0.0879,1.22071c0.7552,-0.94401 1.7676,-1.41602 3.0371,-1.41602c1.1198,0 1.9531,0.32878 2.5,0.98633c0.5469,0.65755 0.8268,1.64062 0.8398,2.94919l0,6.8262l-2.8222,0l0,-6.7578c0,-0.599 -0.1302,-1.0319 -0.3907,-1.29884c-0.2604,-0.27344 -0.6933,-0.41016 -1.2988,-0.41016c-0.7943,0 -1.39,0.33854 -1.7871,1.0156l0,7.4512l-2.8223,0l0,-10.56641l2.6563,0zm11.9922,-2.59765l0,2.59765l1.8066,0l0,2.07032l-1.8066,0l0,5.27339c0,0.3907 0.0748,0.6706 0.2246,0.8399c0.1497,0.1693 0.4362,0.2539 0.8594,0.2539c0.3125,0 0.5891,-0.0228 0.83,-0.0684l0,2.1387c-0.5534,0.1693 -1.123,0.2539 -1.7089,0.2539c-1.9792,0 -2.9883,-0.9993 -3.0274,-2.998l0,-5.69339l-1.543,0l0,-2.07032l1.543,0l0,-2.59765l2.8223,0z"/>
  <path id="svg_29" fill="#FFB27C" d="m79.4316,13.2637c-0.1106,1.5299 -0.677,2.7343 -1.6992,3.6133c-1.0156,0.8789 -2.3567,1.3183 -4.0234,1.3183c-1.8229,0 -3.2585,-0.612 -4.3067,-1.8359c-1.0416,-1.2305 -1.5625,-2.9167 -1.5625,-5.0586l0,-0.8692c0,-1.36715 0.2409,-2.57157 0.7227,-3.61324c0.4818,-1.04167 1.1686,-1.83919 2.0605,-2.39258c0.8985,-0.55989 1.9402,-0.83984 3.125,-0.83984c1.6407,0 2.9623,0.43945 3.9649,1.31836c1.0026,0.8789 1.582,2.11263 1.7383,3.70117l-2.9297,0c-0.0716,-0.91797 -0.3288,-1.58203 -0.7715,-1.99219c-0.4362,-0.41667 -1.1035,-0.625 -2.002,-0.625c-0.9765,0 -1.7089,0.35156 -2.1972,1.05469c-0.4818,0.69661 -0.7292,1.7806 -0.7422,3.25193l0,1.0742c0,1.5365 0.2311,2.6595 0.6934,3.3692c0.4687,0.7096 1.2044,1.0644 2.207,1.0644c0.9049,0 1.5788,-0.205 2.0215,-0.6152c0.4492,-0.4167 0.7063,-1.0579 0.7715,-1.9238l2.9296,0zm7.8614,4.7363c-0.1302,-0.2539 -0.2246,-0.5697 -0.2832,-0.9473c-0.6836,0.7618 -1.5723,1.1426 -2.666,1.1426c-1.0352,0 -1.8946,-0.2995 -2.5782,-0.8984c-0.6771,-0.599 -1.0156,-1.3542 -1.0156,-2.2657c0,-1.1197 0.4134,-1.9791 1.2402,-2.5781c0.8334,-0.5989 2.0345,-0.9017 3.6036,-0.9082l1.2988,0l0,-0.6054c0,-0.4883 -0.127,-0.879 -0.3809,-1.17192c-0.2474,-0.29297 -0.6413,-0.43946 -1.1816,-0.43946c-0.4753,0 -0.8496,0.11394 -1.1231,0.3418c-0.2669,0.22787 -0.4004,0.54038 -0.4004,0.93748l-2.8222,0c0,-0.61196 0.1888,-1.17836 0.5664,-1.6992c0.3776,-0.52083 0.9114,-0.92773 1.6015,-1.2207c0.6901,-0.29948 1.4649,-0.44922 2.3243,-0.44922c1.302,0 2.3339,0.32878 3.0957,0.98633c0.7682,0.65104 1.1523,1.56901 1.1523,2.75389l0,4.5801c0.0065,1.0026 0.1465,1.7611 0.4199,2.2754l0,0.166l-2.8515,0zm-2.334,-1.9629c0.4167,0 0.8008,-0.0911 1.1523,-0.2734c0.3516,-0.1888 0.612,-0.4395 0.7813,-0.752l0,-1.8164l-1.0547,0c-1.4128,0 -2.1647,0.4883 -2.2559,1.4649l-0.0097,0.166c0,0.3515 0.1237,0.6412 0.3711,0.8691c0.2474,0.2279 0.5859,0.3418 1.0156,0.3418zm10.3125,-11.20116l0,2.59765l1.8066,0l0,2.07032l-1.8066,0l0,5.27339c0,0.3907 0.0749,0.6706 0.2246,0.8399c0.1497,0.1693 0.4362,0.2539 0.8594,0.2539c0.3125,0 0.5892,-0.0228 0.83,-0.0684l0,2.1387c-0.5533,0.1693 -1.123,0.2539 -1.7089,0.2539c-1.9792,0 -2.9883,-0.9993 -3.0274,-2.998l0,-5.69339l-1.543,0l0,-2.07032l1.543,0l0,-2.59765l2.8223,0zm2.9883,9.33596c0,-0.6576 0.1823,-1.2663 0.5468,-1.8262c0.3711,-0.5599 1.0482,-1.1816 2.0314,-1.8652c-0.423,-0.56644 -0.755,-1.09704 -0.9962,-1.59183c-0.2409,-0.5013 -0.3613,-1.02213 -0.3613,-1.5625c0,-1.10677 0.3483,-2.00521 1.0445,-2.69531c0.704,-0.69662 1.648,-1.04492 2.832,-1.04492c1.062,0 1.931,0.31575 2.608,0.94726c0.683,0.63151 1.025,1.41927 1.025,2.36328c0,1.13282 -0.573,2.13217 -1.719,2.99805l-1.093,0.79097l2.451,2.8516c0.384,-0.7552 0.576,-1.5885 0.576,-2.5l2.402,0c0,1.849 -0.426,3.3464 -1.279,4.4922l2.129,2.4707l-3.203,0l-0.733,-0.8398c-1.048,0.6901 -2.252,1.0351 -3.613,1.0351c-1.406,0 -2.532,-0.3678 -3.3787,-1.1035c-0.8464,-0.7422 -1.2695,-1.7155 -1.2695,-2.9199zm4.7852,1.7578c0.677,0 1.318,-0.1888 1.924,-0.5664l-2.803,-3.2422l-0.205,0.1465c-0.579,0.4948 -0.869,1.0775 -0.869,1.748c0,0.5664 0.179,1.0287 0.537,1.3867c0.364,0.3516 0.836,0.5274 1.416,0.5274zm-1.035,-8.64259c0,0.48828 0.286,1.10351 0.859,1.8457l0.752,-0.49804c0.384,-0.2474 0.648,-0.48829 0.791,-0.72266c0.15,-0.23438 0.225,-0.51432 0.225,-0.83984c0,-0.32553 -0.121,-0.60873 -0.362,-0.84961c-0.24,-0.24089 -0.55,-0.36133 -0.927,-0.36133c-0.404,0 -0.73,0.13021 -0.977,0.39062c-0.241,0.26042 -0.361,0.60547 -0.361,1.03516zm9.951,10.71289l0,-14.21875l4.375,0c1.25,0 2.366,0.2832 3.35,0.84961c0.989,0.5599 1.761,1.36068 2.314,2.40234c0.553,1.03516 0.83,2.21354 0.83,3.5352l0,0.6543c0,1.3216 -0.273,2.4967 -0.82,3.5253c-0.541,1.0287 -1.306,1.8262 -2.295,2.3926c-0.99,0.5664 -2.106,0.8529 -3.35,0.8594l-4.404,0zm2.93,-11.8457l0,9.4922l1.416,0c1.145,0 2.021,-0.3744 2.627,-1.1231c0.605,-0.7487 0.914,-1.8196 0.927,-3.2129l0,-0.7519c0,-1.44532 -0.299,-2.53907 -0.898,-3.28126c-0.599,-0.74869 -1.475,-1.12304 -2.627,-1.12304l-1.445,0zm9.453,6.4648c0,-1.0481 0.202,-1.9824 0.605,-2.80269c0.404,-0.82032 0.983,-1.45508 1.739,-1.9043c0.761,-0.44922 1.643,-0.67383 2.646,-0.67383c1.426,0 2.588,0.4362 3.486,1.3086c0.905,0.87239 1.41,2.05732 1.514,3.55472l0.02,0.7226c0,1.6211 -0.453,2.9232 -1.358,3.9063c-0.905,0.9765 -2.119,1.4648 -3.642,1.4648c-1.524,0 -2.741,-0.4883 -3.653,-1.4648c-0.905,-0.9766 -1.357,-2.3047 -1.357,-3.9844l0,-0.127zm2.822,0.2051c0,1.0026 0.189,1.7709 0.566,2.3047c0.378,0.5273 0.918,0.791 1.622,0.791c0.683,0 1.217,-0.2604 1.601,-0.7812c0.384,-0.5274 0.576,-1.3672 0.576,-2.5196c0,-0.983 -0.192,-1.7448 -0.576,-2.2851c-0.384,-0.54038 -0.924,-0.81056 -1.621,-0.81056c-0.69,0 -1.224,0.27018 -1.602,0.81056c-0.377,0.5338 -0.566,1.3639 -0.566,2.4902zm8.516,-0.1855c0,-1.6211 0.384,-2.92646 1.152,-3.91604c0.775,-0.98959 1.816,-1.48438 3.125,-1.48438c1.159,0 2.061,0.39714 2.705,1.19141l0.117,-0.9961l2.559,0l0,10.21481c0,0.9245 -0.212,1.7286 -0.635,2.4121c-0.417,0.6836 -1.006,1.2045 -1.767,1.5625c-0.762,0.3581 -1.654,0.5372 -2.676,0.5372c-0.775,0 -1.53,-0.1563 -2.266,-0.4688c-0.736,-0.306 -1.292,-0.7031 -1.67,-1.1914l1.25,-1.7188c0.703,0.7878 1.556,1.1817 2.559,1.1817c0.748,0 1.331,-0.2018 1.748,-0.6055c0.416,-0.3971 0.625,-0.9635 0.625,-1.6992l0,-0.5664c-0.651,0.7357 -1.507,1.1035 -2.569,1.1035c-1.269,0 -2.298,-0.4948 -3.085,-1.4844c-0.782,-0.9961 -1.172,-2.3144 -1.172,-3.955l0,-0.1172zm2.822,0.2051c0,0.957 0.192,1.7089 0.576,2.2558c0.384,0.5404 0.912,0.8106 1.582,0.8106c0.859,0 1.475,-0.3223 1.846,-0.9668l0,-4.4434c-0.378,-0.64453 -0.987,-0.9668 -1.826,-0.9668c-0.677,0 -1.211,0.2767 -1.602,0.8301c-0.384,0.5534 -0.576,1.3802 -0.576,2.4805z"/>
 </g>
</svg>